<?xml version="1.0" encoding="utf-8"?>
<!-- Generator: Adobe Illustrator 16.0.0, SVG Export Plug-In . SVG Version: 6.00 Build 0)  -->
<!DOCTYPE svg PUBLIC "-//W3C//DTD SVG 1.1//EN" "http://www.w3.org/Graphics/SVG/1.1/DTD/svg11.dtd">
<svg version="1.1" id="Layer_1" xmlns="http://www.w3.org/2000/svg" xmlns:xlink="http://www.w3.org/1999/xlink" x="0px" y="0px"
	 width="97.297px" height="75.469px" viewBox="0 0 97.297 75.469" enable-background="new 0 0 97.297 75.469" xml:space="preserve">
<g>
	<path fill="#FFFFFF" d="M13.106,43.185c-0.383,0-0.767-0.147-1.06-0.44L0.439,31.138c-0.586-0.586-0.586-1.536,0-2.122
		L28.017,1.439C28.298,1.158,28.68,1,29.077,1c0.398,0,0.779,0.158,1.061,0.439l11.606,11.608c0.586,0.586,0.586,1.535,0,2.121
		L14.167,42.744C13.874,43.037,13.49,43.185,13.106,43.185 M3.621,30.077l9.485,9.485l25.456-25.456l-9.485-9.486L3.621,30.077z"/>
	<path fill="#FFFFFF" d="M51.048,75.469c-0.397,0-0.779-0.158-1.062-0.439l-34.05-34.053c-0.586-0.586-0.586-1.535,0-2.121
		c0.586-0.586,1.535-0.586,2.121,0l32.991,32.992L71.84,51.055L55.757,35.192c-0.59-0.582-0.596-1.533-0.015-2.122
		c0.582-0.589,1.53-0.596,2.122-0.015l17.158,16.925c0.284,0.281,0.445,0.664,0.446,1.063s-0.157,0.783-0.44,1.065l-22.92,22.921
		C51.827,75.311,51.444,75.469,51.048,75.469"/>
	<path fill="#FFFFFF" d="M49.116,25.194c-0.229,0-0.461-0.052-0.679-0.163l-11.201-5.698c-0.739-0.376-1.033-1.279-0.657-2.017
		c0.376-0.739,1.28-1.032,2.017-0.657l11.201,5.698c0.739,0.376,1.033,1.278,0.657,2.017C50.189,24.895,49.662,25.194,49.116,25.194
		"/>
	<path fill="#FFFFFF" d="M66.665,57.145c-0.384,0-0.768-0.146-1.062-0.439l-6.191-6.192c-0.586-0.586-0.586-1.535,0-2.121
		s1.535-0.586,2.121,0l6.192,6.192c0.585,0.586,0.585,1.535,0,2.121C67.433,56.999,67.049,57.145,66.665,57.145"/>
	<path fill="#FFFFFF" d="M61.377,63.17c-0.384,0-0.768-0.146-1.06-0.439l-6.562-6.562c-0.586-0.586-0.586-1.535,0-2.121
		s1.535-0.586,2.121,0l6.562,6.562c0.586,0.586,0.586,1.535,0,2.121C62.145,63.024,61.761,63.17,61.377,63.17"/>
	<path fill="#FFFFFF" d="M56.352,69.458c-0.384,0-0.768-0.146-1.062-0.438l-7.191-7.193c-0.586-0.586-0.586-1.535,0-2.121
		s1.535-0.586,2.121,0l7.192,7.192c0.585,0.586,0.585,1.535,0,2.122C57.119,69.312,56.735,69.458,56.352,69.458"/>
	<path fill="#FFFFFF" d="M84.189,42.184c-0.384,0-0.769-0.146-1.061-0.439L55.553,14.167c-0.587-0.586-0.587-1.536,0-2.122
		L67.159,0.439c0.586-0.586,1.535-0.586,2.121,0l27.577,27.577c0.281,0.281,0.439,0.663,0.439,1.061c0,0.397-0.158,0.779-0.439,1.06
		L85.25,41.744C84.957,42.037,84.573,42.184,84.189,42.184 M58.734,13.106l25.455,25.456l9.486-9.485L68.22,3.622L58.734,13.106z"/>
	<path fill="#FFFFFF" d="M45.106,47.326c-0.384,0-0.768-0.146-1.061-0.439l-6.778-6.778c-0.516-0.516-0.586-1.326-0.167-1.923
		l10.789-15.353c0.11-0.156,0.248-0.29,0.408-0.394l10.264-6.698c0.693-0.453,1.623-0.259,2.075,0.437
		c0.453,0.693,0.258,1.623-0.437,2.075l-10.021,6.541L40.28,38.879l4.826,4.826l10.508-10.508c0.586-0.586,1.535-0.586,2.121,0
		s0.586,1.535,0,2.121L46.167,46.887C45.875,47.18,45.49,47.326,45.106,47.326"/>
	<path fill="#FFFFFF" d="M71.08,48.55c-0.384,0-0.769-0.146-1.062-0.438c-0.585-0.587-0.585-1.536,0-2.122l8.402-8.401
		c0.586-0.586,1.535-0.586,2.121,0s0.586,1.535,0,2.121l-8.401,8.402C71.848,48.404,71.464,48.55,71.08,48.55"/>
</g>
</svg>
