<?xml version="1.0" encoding="utf-8"?>
<!-- Generator: Adobe Illustrator 16.0.0, SVG Export Plug-In . SVG Version: 6.00 Build 0)  -->
<!DOCTYPE svg PUBLIC "-//W3C//DTD SVG 1.1//EN" "http://www.w3.org/Graphics/SVG/1.1/DTD/svg11.dtd">
<svg version="1.1" id="Layer_1" xmlns="http://www.w3.org/2000/svg" xmlns:xlink="http://www.w3.org/1999/xlink" x="0px" y="0px"
	 width="88.895px" height="88.895px" viewBox="0 0 88.895 88.895" enable-background="new 0 0 88.895 88.895" xml:space="preserve">
<g>
	<path fill="#FFFFFF" d="M44.447,88.895C19.939,88.895,0,68.955,0,44.448c0-11.759,4.547-22.843,12.804-31.213
		c0.581-0.589,1.531-0.595,2.121-0.014c0.59,0.582,0.596,1.532,0.015,2.122C7.24,23.146,3,33.482,3,44.448
		c0,22.854,18.593,41.447,41.447,41.447c22.854,0,41.447-18.593,41.447-41.447c0-0.829,0.672-1.5,1.5-1.5s1.5,0.671,1.5,1.5
		C88.895,68.955,68.955,88.895,44.447,88.895"/>
	<path fill="#FFFFFF" d="M86.433,36.874c-0.692,0-1.314-0.482-1.466-1.185C80.893,16.748,63.852,3,44.447,3
		c-8.036,0-15.831,2.304-22.544,6.662c-0.694,0.453-1.623,0.254-2.075-0.44c-0.451-0.695-0.253-1.624,0.441-2.075
		C27.469,2.472,35.83,0,44.447,0C65.255,0,83.53,14.744,87.9,35.058c0.174,0.81-0.341,1.607-1.151,1.782
		C86.643,36.862,86.536,36.874,86.433,36.874"/>
	<path fill="#FFFFFF" d="M86.947,45.947h-42c-0.829,0-1.5-0.671-1.5-1.5s0.671-1.5,1.5-1.5h42c0.829,0,1.5,0.671,1.5,1.5
		S87.776,45.947,86.947,45.947"/>
	<path fill="#FFFFFF" d="M74.723,76.222c-0.384,0-0.768-0.146-1.061-0.439L13.175,15.295c-0.586-0.585-0.586-1.535,0-2.121
		c0.586-0.586,1.535-0.586,2.121,0l60.488,60.487c0.585,0.586,0.585,1.536,0,2.121C75.49,76.076,75.106,76.222,74.723,76.222"/>
</g>
</svg>
