<?xml version="1.0" encoding="utf-8"?>
<!-- Generator: Adobe Illustrator 16.0.0, SVG Export Plug-In . SVG Version: 6.00 Build 0)  -->
<!DOCTYPE svg PUBLIC "-//W3C//DTD SVG 1.1//EN" "http://www.w3.org/Graphics/SVG/1.1/DTD/svg11.dtd">
<svg version="1.1" id="Layer_1" xmlns="http://www.w3.org/2000/svg" xmlns:xlink="http://www.w3.org/1999/xlink" x="0px" y="0px"
	 width="78.31px" height="73.5px" viewBox="0 0 78.31 73.5" enable-background="new 0 0 78.31 73.5" xml:space="preserve">
<g>
	<path fill="#FFFFFF" d="M39.548,56c-0.829,0-1.5-0.671-1.5-1.5v-53c0-0.829,0.671-1.5,1.5-1.5c0.829,0,1.5,0.671,1.5,1.5v53
		C41.048,55.329,40.377,56,39.548,56"/>
	<path fill="#FFFFFF" d="M66.583,14.079c-1.938,0-4.58-0.549-8.054-1.272c-5.305-1.104-11.907-2.477-18.98-2.477
		c-7.074,0-13.677,1.373-18.981,2.477c-5.744,1.195-9.211,1.915-10.994,0.464C9.105,12.89,8.548,12.188,8.548,11
		c0-0.829,0.671-1.5,1.5-1.5c0.823,0,1.492,0.664,1.5,1.485c0.994,0.426,5.094-0.426,8.408-1.116
		C25.108,8.798,32.165,7.33,39.549,7.33c7.383,0,14.438,1.468,19.592,2.539c3.31,0.689,7.404,1.543,8.404,1.117
		c0.046-0.79,0.701-1.45,1.5-1.45c0.828,0,1.504,0.635,1.504,1.464c0,1.188-0.558,1.89-1.025,2.271
		C68.818,13.845,67.851,14.079,66.583,14.079"/>
	<path fill="#FFFFFF" d="M47.048,64.5h-15c-0.829,0-1.5-0.671-1.5-1.5s0.671-1.5,1.5-1.5h15c0.829,0,1.5,0.671,1.5,1.5
		S47.877,64.5,47.048,64.5"/>
	<path fill="#FFFFFF" d="M57.048,73.5h-35c-0.829,0-1.5-0.671-1.5-1.5s0.671-1.5,1.5-1.5h35c0.829,0,1.5,0.671,1.5,1.5
		S57.877,73.5,57.048,73.5"/>
	<path fill="#FFFFFF" d="M65.048,49.675c-6.89,0-10.564-0.206-12.276-4.634c-3.456-8.936,5.802-24.644,6.197-25.308
		c0.426-0.713,1.346-0.946,2.057-0.521c0.712,0.423,0.944,1.344,0.521,2.056c-2.485,4.179-8.409,16.403-5.978,22.691
		c0.894,2.31,2.311,2.716,9.479,2.716c7.221,0,8.656-0.41,9.605-2.74c2.453-6.025-2.545-17.474-5.531-22.687l-0.429-0.75
		l0.432-0.501c0.269-0.463,0.764-0.497,1.298-0.497h0.004c0.536,0,1.032,0.041,1.3,0.507c0.957,1.672,9.255,16.465,5.705,25.184
		C75.639,49.594,71.952,49.675,65.048,49.675"/>
	<path fill="#FFFFFF" d="M13.048,49.675c-6.89,0-10.565-0.206-12.277-4.634c-3.456-8.936,5.802-24.644,6.198-25.308
		c0.424-0.713,1.344-0.946,2.056-0.521c0.712,0.423,0.945,1.344,0.521,2.056C7.06,25.447,1.137,37.671,3.568,43.959
		c0.894,2.31,2.311,2.716,9.48,2.716c7.22,0,8.656-0.41,9.605-2.74c2.453-6.025-2.545-17.474-5.531-22.687l-0.429-0.75l0.432-0.501
		c0.268-0.463,0.763-0.497,1.298-0.497h0.004c0.536,0,1.032,0.041,1.299,0.507c0.957,1.672,9.255,16.465,5.705,25.184
		C23.638,49.594,19.952,49.675,13.048,49.675"/>
</g>
</svg>
