<?xml version="1.0" encoding="utf-8"?>
<!-- Generator: Adobe Illustrator 16.0.0, SVG Export Plug-In . SVG Version: 6.00 Build 0)  -->
<!DOCTYPE svg PUBLIC "-//W3C//DTD SVG 1.1//EN" "http://www.w3.org/Graphics/SVG/1.1/DTD/svg11.dtd">
<svg version="1.1" id="Layer_1" xmlns="http://www.w3.org/2000/svg" xmlns:xlink="http://www.w3.org/1999/xlink" x="0px" y="0px"
	 width="67px" height="76.888px" viewBox="0 0 67 76.888" enable-background="new 0 0 67 76.888" xml:space="preserve">
<g>
	<path fill="#FFFFFF" d="M65,67.888h-9c-0.829,0-1.5-0.671-1.5-1.5v-36.5c0-0.829,0.671-1.5,1.5-1.5s1.5,0.671,1.5,1.5v35h6v-35
		c0-0.829,0.671-1.5,1.5-1.5s1.5,0.671,1.5,1.5v36.5C66.5,67.217,65.829,67.888,65,67.888"/>
	<path fill="#FFFFFF" d="M47,67.888h-9c-0.829,0-1.5-0.671-1.5-1.5v-36.5c0-0.829,0.671-1.5,1.5-1.5s1.5,0.671,1.5,1.5v35h6v-35
		c0-0.829,0.671-1.5,1.5-1.5s1.5,0.671,1.5,1.5v36.5C48.5,67.217,47.829,67.888,47,67.888"/>
	<path fill="#FFFFFF" d="M29,67.888h-9c-0.829,0-1.5-0.671-1.5-1.5v-36.5c0-0.829,0.671-1.5,1.5-1.5c0.829,0,1.5,0.671,1.5,1.5v35h6
		v-35c0-0.829,0.671-1.5,1.5-1.5c0.829,0,1.5,0.671,1.5,1.5v36.5C30.5,67.217,29.829,67.888,29,67.888"/>
	<path fill="#FFFFFF" d="M11,67.888H2c-0.829,0-1.5-0.671-1.5-1.5v-36.5c0-0.829,0.671-1.5,1.5-1.5c0.829,0,1.5,0.671,1.5,1.5v35h6
		v-35c0-0.829,0.671-1.5,1.5-1.5c0.829,0,1.5,0.671,1.5,1.5v36.5C12.5,67.217,11.829,67.888,11,67.888"/>
	<path fill="#FFFFFF" d="M65.5,76.888h-64c-0.829,0-1.5-0.671-1.5-1.5s0.671-1.5,1.5-1.5h64c0.829,0,1.5,0.671,1.5,1.5
		S66.329,76.888,65.5,76.888"/>
	<path fill="#FFFFFF" d="M65.5,22.888h-64c-0.829,0-1.5-0.671-1.5-1.5s0.671-1.5,1.5-1.5h64c0.829,0,1.5,0.671,1.5,1.5
		S66.329,22.888,65.5,22.888"/>
	<path fill="#FFFFFF" d="M1.501,22.888c-0.505,0-0.998-0.254-1.28-0.716c-0.433-0.707-0.212-1.63,0.495-2.063L33.174,0.221
		c0.487-0.298,1.1-0.294,1.583,0.01L66.3,20.119c0.702,0.442,0.911,1.368,0.47,2.069c-0.442,0.701-1.369,0.91-2.068,0.469
		L33.945,3.266L2.284,22.667C2.04,22.817,1.769,22.888,1.501,22.888"/>
</g>
</svg>
