<?xml version="1.0" encoding="utf-8"?>
<!-- Generator: Adobe Illustrator 16.0.0, SVG Export Plug-In . SVG Version: 6.00 Build 0)  -->
<!DOCTYPE svg PUBLIC "-//W3C//DTD SVG 1.1//EN" "http://www.w3.org/Graphics/SVG/1.1/DTD/svg11.dtd">
<svg version="1.1" id="Layer_1" xmlns="http://www.w3.org/2000/svg" xmlns:xlink="http://www.w3.org/1999/xlink" x="0px" y="0px"
	 width="29px" height="90px" viewBox="0 0 29 90" enable-background="new 0 0 29 90" xml:space="preserve">
<g>
	<path fill="#FFFFFF" d="M21.5,22h-14c-0.654,0-1.234-0.424-1.43-1.048l-6-19c-0.144-0.456-0.062-0.953,0.22-1.339
		C0.573,0.227,1.022,0,1.5,0h26c0.478,0,0.927,0.227,1.21,0.613c0.282,0.386,0.364,0.883,0.22,1.339l-6,19
		C22.733,21.576,22.154,22,21.5,22 M8.599,19h11.802l5.052-16H3.547L8.599,19z"/>
	<path fill="#FFFFFF" d="M14.5,90c-0.341,0-0.682-0.116-0.96-0.348l-12-10c-0.384-0.319-0.583-0.809-0.532-1.305l3.18-31.166
		l1.816-25.787c0.058-0.827,0.756-1.461,1.601-1.391c0.827,0.057,1.45,0.775,1.391,1.601l-1.82,25.834L4.073,77.858L14.5,86.548
		l10.437-8.698l-4.931-56.219c-0.073-0.825,0.537-1.553,1.363-1.625c0.828-0.069,1.553,0.537,1.625,1.363l5,57
		c0.043,0.489-0.156,0.969-0.534,1.283l-12,10C15.182,89.884,14.841,90,14.5,90"/>
	<path fill="#FFFFFF" d="M22.782,44.532c-0.384,0-0.769-0.146-1.062-0.439L6.408,28.779c-0.586-0.586-0.586-1.535,0-2.121
		s1.535-0.586,2.121,0l15.313,15.313c0.585,0.586,0.585,1.536,0,2.122C23.55,44.386,23.166,44.532,22.782,44.532"/>
	<path fill="#FFFFFF" d="M23.782,58.532c-0.384,0-0.769-0.146-1.062-0.439L5.408,40.779c-0.586-0.586-0.586-1.535,0-2.121
		s1.535-0.586,2.121,0l17.313,17.313c0.585,0.586,0.585,1.535,0,2.121C24.55,58.386,24.166,58.532,23.782,58.532"/>
	<path fill="#FFFFFF" d="M24.782,72.532c-0.384,0-0.769-0.146-1.062-0.439L4.408,52.779c-0.586-0.586-0.586-1.535,0-2.121
		s1.535-0.586,2.121,0l19.313,19.313c0.585,0.586,0.585,1.535,0,2.121C25.55,72.386,25.166,72.532,24.782,72.532"/>
</g>
</svg>
